# xmcd
#
# Track frame offsets: 
#        183
#        32683
#        47058
#
# Disc length: 830 seconds
#
# Revision: 3
# Processed by: cddbd v1.5.2PL0 Copyright (c) Steve Scherf et al.
# Submitted via: ExactAudioCopyFreeDBPlugin 1.0
#
DISCID=1d033c03
DTITLE=Sybil - Walk On By
DYEAR=1990
DGENRE=House
TTITLE0=Walk On By (Club Mix)
TTITLE1=Bad Beats Suite
TTITLE2=Walk On By (Dub Version)
EXTD=
EXTT0=
EXTT1=
EXTT2=
PLAYORDER=
